# xmcd
#
# Track frame offsets: 
#        150
#        20163
#        42312
#        60818
#        72203
#        91002
#        109532
#        125017
#        137665
#        142628
#        157517
#        160640
#        175012
#        185764
#        205903
#
# Disc length: 2966 seconds
#
# Revision: 1
# Processed by: cddbd v1.5.2PL0 Copyright (c) Steve Scherf et al.
# Submitted via: ExactAudioCopy v0.99pb1
#
DISCID=b70b940f
DTITLE=David Honeyboy Edwards - The World Don't Owe Me Nothing
DYEAR=1997
DGENRE=
TTITLE0=West Helena Blues
TTITLE1=Walkin Blues
TTITLE2=Robert Johnson Story
TTITLE3=Catfish Blues
TTITLE4=Every Now and Then
TTITLE5=My Mama Told Me
TTITLE6=Crossroads
TTITLE7=Too Many Drivers
TTITLE8=Robert Nighthawk Story
TTITLE9=You're the One
TTITLE10=Comin' To Chicago Story
TTITLE11=Sweet Home Chicago
TTITLE12=Carey Bell Story
TTITLE13=So Hard to Leave You
TTITLE14=Hide Away
EXTD=
EXTT0=
EXTT1=
EXTT2=
EXTT3=
EXTT4=
EXTT5=
EXTT6=
EXTT7=
EXTT8=
EXTT9=
EXTT10=
EXTT11=
EXTT12=
EXTT13=
EXTT14=
PLAYORDER=
